HIERARCHY
ROOT reference
{
  OFFSET 0 0 0
  CHANNELS 6 Xposition Yposition Zposition Zrotation Xrotation Yrotation
  JOINT Hips
  {
    OFFSET 340.57 87.5694 214.797
    CHANNELS 3 Zrotation Xrotation Yrotation
    JOINT RightUpLeg
    {
      OFFSET -9.35418 -1.55218 -0.019184
      CHANNELS 3 Zrotation Xrotation Yrotation
      JOINT RightLeg
      {
        OFFSET -0.0482219 -41.8948 0.0725956
        CHANNELS 3 Zrotation Xrotation Yrotation
        JOINT RightFoot
        {
          OFFSET -1.00159 -42.3965 -1.97064
          CHANNELS 3 Zrotation Xrotation Yrotation
          End Site
          {
            OFFSET 0 -7.69 17.5
          }
        }
      }
    }
    JOINT LeftUpLeg
    {
      OFFSET 9.33628 -1.64535 -0.0795185
      CHANNELS 3 Zrotation Xrotation Yrotation
      JOINT LeftLeg
      {
        OFFSET 0.124871 -41.8725 -0.08325
        CHANNELS 3 Zrotation Xrotation Yrotation
        JOINT LeftFoot
        {
          OFFSET 0.728222 -40.8097 2.1196
          CHANNELS 3 Zrotation Xrotation Yrotation
          End Site
          {
            OFFSET 0 -7.69 17.5
          }
        }
      }
    }
    JOINT Spine
    {
      OFFSET -0.0135102 14.2943 0.0647361
      CHANNELS 3 Zrotation Xrotation Yrotation
      JOINT Spine1
      {
        OFFSET 0.0181502 9.72385 0.0148045
        CHANNELS 3 Zrotation Xrotation Yrotation
        JOINT Spine2
        {
          OFFSET 0.0557859 10.1166 -0.00979693
          CHANNELS 3 Zrotation Xrotation Yrotation
          JOINT Spine3
          {
            OFFSET 0.0359868 9.71757 0.00306838
            CHANNELS 3 Zrotation Xrotation Yrotation
            JOINT Neck
            {
              OFFSET 0.139197 10.3803 0.0501204
              CHANNELS 3 Zrotation Xrotation Yrotation
              JOINT Head
              {
                OFFSET 0.148012 9.47645 -0.000545472
                CHANNELS 3 Zrotation Xrotation Yrotation
                End Site
                {
                  OFFSET 0 15.95 0
                }
              }
            }
            JOINT RightShoulder
            {
              OFFSET -3.16276 6.92807 0.0312834
              CHANNELS 3 Zrotation Xrotation Yrotation
              JOINT RightArm
              {
                OFFSET -12.7681 0.0492996 0.0890957
                CHANNELS 3 Zrotation Xrotation Yrotation
                JOINT RightForeArm
                {
                  OFFSET -26.4761 -0.090776 0.147076
                  CHANNELS 3 Zrotation Xrotation Yrotation
                  JOINT RightHand
                  {
                    OFFSET -25.9655 0.0607057 -0.248467
                    CHANNELS 3 Zrotation Xrotation Yrotation
                    JOINT RightHandThumb1
                    {
                      OFFSET -2.48905 0.190105 3.12053
                      CHANNELS 3 Zrotation Xrotation Yrotation
                      JOINT RightHandThumb2
                      {
                        OFFSET -3.68274 0 0
                        CHANNELS 3 Zrotation Xrotation Yrotation
                        JOINT RightHandThumb3
                        {
                          OFFSET -2.55832 0 0
                          CHANNELS 3 Zrotation Xrotation Yrotation
                          End Site
                          {
                            OFFSET -2.194 0 0
                          }
                        }
                      }
                    }
                    JOINT RightInHandIndex
                    {
                      OFFSET -3.22368 0.508421 1.97842
                      CHANNELS 3 Zrotation Xrotation Yrotation
                      JOINT RightHandIndex1
                      {
                        OFFSET -5.21684 -0.091368 0.999158
                        CHANNELS 3 Zrotation Xrotation Yrotation
                        JOINT RightHandIndex2
                        {
                          OFFSET -3.61937 0 0
                          CHANNELS 3 Zrotation Xrotation Yrotation
                          JOINT RightHandIndex3
                          {
                            OFFSET -2.0521 0 0
                            CHANNELS 3 Zrotation Xrotation Yrotation
                            End Site
                            {
                              OFFSET -1.805 0 0
                            }
                          }
                        }
                      }
                    }
                    JOINT RightInHandMiddle
                    {
                      OFFSET -3.38211 0.517263 0.756737
                      CHANNELS 3 Zrotation Xrotation Yrotation
                      JOINT RightHandMiddle1
                      {
                        OFFSET -5.17411 -0.084 0.313895
                        CHANNELS 3 Zrotation Xrotation Yrotation
                        JOINT RightHandMiddle2
                        {
                          OFFSET -3.94947 0 0
                          CHANNELS 3 Zrotation Xrotation Yrotation
                          JOINT RightHandMiddle3
                          {
                            OFFSET -2.47579 0 0
                            CHANNELS 3 Zrotation Xrotation Yrotation
                            End Site
                            {
                              OFFSET -1.975 0 0
                            }
                          }
                        }
                      }
                    }
                    JOINT RightInHandRing
                    {
                      OFFSET -3.36516 0.537895 -0.128947
                      CHANNELS 3 Zrotation Xrotation Yrotation
                      JOINT RightHandRing1
                      {
                        OFFSET -4.63474 -0.022105 -0.478947
                        CHANNELS 3 Zrotation Xrotation Yrotation
                        JOINT RightHandRing2
                        {
                          OFFSET -3.44238 0 0
                          CHANNELS 3 Zrotation Xrotation Yrotation
                          JOINT RightHandRing3
                          {
                            OFFSET -2.3881 0 0
                            CHANNELS 3 Zrotation Xrotation Yrotation
                            End Site
                            {
                              OFFSET -1.857 0 0
                            }
                          }
                        }
                      }
                    }
                    JOINT RightInHandPinky
                    {
                      OFFSET -3.16105 0.469368 -1.20179
                      CHANNELS 3 Zrotation Xrotation Yrotation
                      JOINT RightHandPinky1
                      {
                        OFFSET -4.14105 -0.022105 -1.09053
                        CHANNELS 3 Zrotation Xrotation Yrotation
                        JOINT RightHandPinky2
                        {
                          OFFSET -2.75653 0 0
                          CHANNELS 3 Zrotation Xrotation Yrotation
                          JOINT RightHandPinky3
                          {
                            OFFSET -1.74189 0 0
                            CHANNELS 3 Zrotation Xrotation Yrotation
                            End Site
                            {
                              OFFSET -1.645 0 0
                            }
                          }
                        }
                      }
                    }
                  }
                }
              }
            }
            JOINT LeftShoulder
            {
              OFFSET 3.20588 6.97332 0.0254387
              CHANNELS 3 Zrotation Xrotation Yrotation
              JOINT LeftArm
              {
                OFFSET 12.8648 0.0341024 0.0247643
                CHANNELS 3 Zrotation Xrotation Yrotation
                JOINT LeftForeArm
                {
                  OFFSET 26.5059 -0.0470976 -0.0807017
                  CHANNELS 3 Zrotation Xrotation Yrotation
                  JOINT LeftHand
                  {
                    OFFSET 26.0013 -0.0100885 -0.0649647
                    CHANNELS 3 Zrotation Xrotation Yrotation
                    JOINT LeftHandThumb1
                    {
                      OFFSET 2.48905 0.190105 3.12053
                      CHANNELS 3 Zrotation Xrotation Yrotation
                      JOINT LeftHandThumb2
                      {
                        OFFSET 3.68274 0 0
                        CHANNELS 3 Zrotation Xrotation Yrotation
                        JOINT LeftHandThumb3
                        {
                          OFFSET 2.55832 0 0
                          CHANNELS 3 Zrotation Xrotation Yrotation
                          End Site
                          {
                            OFFSET 2.194 0 0
                          }
                        }
                      }
                    }
                    JOINT LeftInHandIndex
                    {
                      OFFSET 3.22368 0.508421 1.97842
                      CHANNELS 3 Zrotation Xrotation Yrotation
                      JOINT LeftHandIndex1
                      {
                        OFFSET 5.21684 -0.091368 0.999158
                        CHANNELS 3 Zrotation Xrotation Yrotation
                        JOINT LeftHandIndex2
                        {
                          OFFSET 3.61937 0 0
                          CHANNELS 3 Zrotation Xrotation Yrotation
                          JOINT LeftHandIndex3
                          {
                            OFFSET 2.0521 0 0
                            CHANNELS 3 Zrotation Xrotation Yrotation
                            End Site
                            {
                              OFFSET 1.805 0 0
                            }
                          }
                        }
                      }
                    }
                    JOINT LeftInHandMiddle
                    {
                      OFFSET 3.38211 0.517263 0.756737
                      CHANNELS 3 Zrotation Xrotation Yrotation
                      JOINT LeftHandMiddle1
                      {
                        OFFSET 5.17411 -0.084 0.313895
                        CHANNELS 3 Zrotation Xrotation Yrotation
                        JOINT LeftHandMiddle2
                        {
                          OFFSET 3.94947 0 0
                          CHANNELS 3 Zrotation Xrotation Yrotation
                          JOINT LeftHandMiddle3
                          {
                            OFFSET 2.47579 0 0
                            CHANNELS 3 Zrotation Xrotation Yrotation
                            End Site
                            {
                              OFFSET 1.975 0 0
                            }
                          }
                        }
                      }
                    }
                    JOINT LeftInHandRing
                    {
                      OFFSET 3.36516 0.537895 -0.128947
                      CHANNELS 3 Zrotation Xrotation Yrotation
                      JOINT LeftHandRing1
                      {
                        OFFSET 4.63474 -0.022105 -0.478947
                        CHANNELS 3 Zrotation Xrotation Yrotation
                        JOINT LeftHandRing2
                        {
                          OFFSET 3.44238 0 0
                          CHANNELS 3 Zrotation Xrotation Yrotation
                          JOINT LeftHandRing3
                          {
                            OFFSET 2.3881 0 0
                            CHANNELS 3 Zrotation Xrotation Yrotation
                            End Site
                            {
                              OFFSET 1.857 0 0
                            }
                          }
                        }
                      }
                    }
                    JOINT LeftInHandPinky
                    {
                      OFFSET 3.16105 0.469368 -1.20179
                      CHANNELS 3 Zrotation Xrotation Yrotation
                      JOINT LeftHandPinky1
                      {
                        OFFSET 4.14105 -0.022105 -1.09053
                        CHANNELS 3 Zrotation Xrotation Yrotation
                        JOINT LeftHandPinky2
                        {
                          OFFSET 2.75653 0 0
                          CHANNELS 3 Zrotation Xrotation Yrotation
                          JOINT LeftHandPinky3
                          {
                            OFFSET 1.74189 0 0
                            CHANNELS 3 Zrotation Xrotation Yrotation
                            End Site
                            {
                              OFFSET 1.645 0 0
                            }
                          }
                        }
                      }
                    }
                  }
                }
              }
            }
          }
        }
      }
    }
  }
}
MOTION
Frames: 2
Frame Time: 0.00833333
3.000000000000000000e+02 0.000000000000000000e+00 0.000000000000000000e+00 0.000000000000000000e+00 0.000000000000000000e+00 0.000000000000000000e+00 -6.916340946696834628e-03 7.986045947041355703e-03 1.607734992286857486e-03 -1.627632819848887080e-02 1.078113158086860257e-02 -2.557812071596087672e-02 2.319378525601389213e-02 2.932163287904867091e-02 -1.399608452542452572e-02 -3.618298574458986283e-03 -4.505630775196368260e-02 1.877525069319416207e-02 6.564760858012138114e-03 1.585651185219377757e-02 -1.255308987245006558e-01 -8.573186668932986088e-02 -9.151661253214564071e-03 1.849161451097600939e-01 -2.018979488393070690e-02 7.644001623465657667e-03 -3.892693328969143440e-02 3.897568731766620082e-02 -1.672272042108582284e-04 -8.692047849655126779e-02 8.219790159372264773e-03 -4.322589998841071431e-03 -2.126353276067844897e-02 1.293321914354789680e-02 -7.418983265799769869e-03 -3.193707828133351273e-02 -3.363709182819844649e-03 4.131696596834754168e-03 8.452909678824560569e-03 -3.473111404505805667e-03 3.974336239036940603e-03 8.927077726041156291e-03 -4.988020634353079741e-02 7.516323904120622568e-02 1.495422647933765115e-01 -6.857090903719756381e-02 2.603821787233859611e-02 1.765263163450630501e-01 4.806305753246956081e-02 -1.389701919157989851e-01 -1.224997452766459910e-01 -1.137707209163714150e+00 6.277647006918082306e-01 -1.767441896369600585e+00 3.278394246801952239e-01 -2.854889600938368410e-01 5.346293465705411752e-01 0.000000000000000000e+00 0.000000000000000000e+00 0.000000000000000000e+00 -9.869847269067017887e-15 3.684004252414140706e-15 0.000000000000000000e+00 -2.459716446756451334e-14 5.148378065487155337e-15 0.000000000000000000e+00 -3.321186341113112027e-15 9.863526244568740636e-16 -1.111112897555440252e-15 0.000000000000000000e+00 0.000000000000000000e+00 0.000000000000000000e+00 0.000000000000000000e+00 -4.516219898811965880e-15 -2.533931829093570307e-14 0.000000000000000000e+00 8.508555665957103190e-15 3.008128208587529639e-14 -3.321186341113112027e-15 9.863526244568740636e-16 -1.111112897555440252e-15 0.000000000000000000e+00 8.523710904482056066e-16 -5.067369171891504147e-15 0.000000000000000000e+00 -4.666402674983726360e-15 -2.208078613724789417e-14 0.000000000000000000e+00 2.761396661055413134e-15 2.480239335329679378e-14 -3.321186341113112027e-15 9.863526244568740636e-16 -1.111112897555440252e-15 0.000000000000000000e+00 0.000000000000000000e+00 0.000000000000000000e+00 0.000000000000000000e+00 -8.778957456582465463e-16 -1.983497013636726132e-14 0.000000000000000000e+00 3.544388756877036366e-15 2.107697527111623861e-14 -3.321186341113112027e-15 9.863526244568740636e-16 -1.111112897555440252e-15 0.000000000000000000e+00 0.000000000000000000e+00 0.000000000000000000e+00 0.000000000000000000e+00 -3.574909753248565091e-15 -2.245748658070755244e-14 0.000000000000000000e+00 3.883581583064720771e-16 1.476615583782083256e-14 1.701201190808500005e-02 -3.426106360338714539e-03 -6.020254346269705154e-02 -3.246885304474732559e-01 -2.059510449675389931e-01 4.273740673417215086e-01 -3.210085526073905848e-01 -1.323296279681677179e-01 -2.057655399428555132e-01 -9.506776141578739125e-02 -3.718706632158704783e-01 -1.632309557034258285e-01 0.000000000000000000e+00 0.000000000000000000e+00 0.000000000000000000e+00 -2.593992582965177175e-15 3.621346552930423804e-16 0.000000000000000000e+00 -3.414710194729447322e-15 3.654748785192039606e-17 0.000000000000000000e+00 1.005064791929527477e-15 -3.191741826736905795e-15 -5.491402110919515664e-16 0.000000000000000000e+00 0.000000000000000000e+00 0.000000000000000000e+00 0.000000000000000000e+00 7.053855199615911050e-17 -8.917713082390918823e-15 0.000000000000000000e+00 -1.658844952993768302e-16 6.109252972524527540e-15 1.005064791929527477e-15 -3.191741826736905795e-15 -5.491402110919515664e-16 0.000000000000000000e+00 5.132677855342245533e-16 -5.151126793988077168e-15 0.000000000000000000e+00 1.532857164236368781e-15 -9.481754194646923147e-15 0.000000000000000000e+00 -3.683518024843265475e-16 -1.097093714000513200e-15 1.005064791929527477e-15 -3.191741826736905795e-15 -5.491402110919515664e-16 0.000000000000000000e+00 0.000000000000000000e+00 0.000000000000000000e+00 0.000000000000000000e+00 4.472512436718134448e-15 -1.128520805423480707e-14 0.000000000000000000e+00 1.687678682397743593e-15 -2.869425293686360644e-15 1.005064791929527477e-15 -3.191741826736905795e-15 -5.491402110919515664e-16 0.000000000000000000e+00 0.000000000000000000e+00 0.000000000000000000e+00 0.000000000000000000e+00 -4.424695918810428164e-16 -1.057333243760120862e-14 0.000000000000000000e+00 2.782859190587703514e-15 -5.935628652410258020e-15
3.000000000000000000e+02 0.000000000000000000e+00 0.000000000000000000e+00 0.000000000000000000e+00 0.000000000000000000e+00 0.000000000000000000e+00 -1.082423654596507316e-03 1.137365518391701084e-03 -1.804360647729617200e-03 5.252954702054022339e-03 1.702660583645299128e-03 1.239574958902534517e-02 3.926377495369213523e-03 -2.261192686627054669e-03 -7.085097616802231088e-03 -5.605207140269755734e-04 1.893203466974176111e-03 2.482626679073402908e-04 3.618897814336328230e-03 5.118838273558079521e-03 -1.494788473005808065e-03 -1.023353677262218596e-03 -2.343423760326327800e-03 3.415988350994754105e-03 -2.650642976142984948e-03 -2.139341535891545014e-03 9.954931266656526483e-04 -8.586334325070315437e-03 1.513257527571011457e-03 2.297559910801908259e-02 -1.686455878463163005e-03 1.285677930859480036e-03 5.701273770427631171e-03 -2.663652263847743860e-03 2.089562142615898361e-03 8.717963957729168989e-03 7.100032872936989882e-04 1.201850938383173866e-03 1.294630367961976437e-04 7.431433922780293242e-04 1.241737160991984853e-03 -3.016567924958822317e-05 1.571282373049572717e-02 2.673478675865085391e-02 1.835505475696075058e-03 1.751826635911332350e-02 -1.196710299653958205e-02 -3.262293610012157591e-02 -7.217114348371184152e-02 1.464141582723504920e-01 1.512330202024410042e-01 -1.274904802848326468e-01 -1.538070781831514522e-01 -8.967733846627962135e-02 1.592394211014410144e-01 -1.883654903130863034e-01 2.791933841880540612e-01 0.000000000000000000e+00 0.000000000000000000e+00 0.000000000000000000e+00 1.150062085852702960e-14 -5.647738884225692738e-15 0.000000000000000000e+00 -1.546485275765733074e-14 -1.905996844434675833e-15 0.000000000000000000e+00 -4.467535863097137306e-15 9.829575787573742166e-16 4.245314947274707881e-16 0.000000000000000000e+00 0.000000000000000000e+00 0.000000000000000000e+00 0.000000000000000000e+00 -2.637014679529968446e-15 -1.623739630959698261e-14 0.000000000000000000e+00 -2.311910288666134500e-15 -1.045260011326581893e-14 -4.467535863097137306e-15 9.829575787573742166e-16 4.245314947274707881e-16 0.000000000000000000e+00 -3.080286713295981169e-15 -8.991589598014683532e-16 0.000000000000000000e+00 -4.852889586848137739e-15 -1.747591096759413619e-14 0.000000000000000000e+00 3.202400685549005387e-15 -1.045582272413849987e-14 -4.467535863097137306e-15 9.829575787573742166e-16 4.245314947274707881e-16 0.000000000000000000e+00 0.000000000000000000e+00 0.000000000000000000e+00 0.000000000000000000e+00 -7.279087444768912056e-15 -1.650389848234348576e-14 0.000000000000000000e+00 1.472942217499488447e-15 -8.136647818813341577e-15 -4.467535863097137306e-15 9.829575787573742166e-16 4.245314947274707881e-16 0.000000000000000000e+00 0.000000000000000000e+00 0.000000000000000000e+00 0.000000000000000000e+00 -3.859706193148839921e-16 -2.241703654475311191e-14 0.000000000000000000e+00 -2.994796811940645803e-15 -1.155796268333575915e-14 -1.968541432826911852e-02 1.591937459049207887e-02 1.066280929359064017e-02 1.477746865711922208e-01 6.321607403581344653e-02 -1.631932436921183782e-01 1.482804304016479002e-01 -3.330771173182262707e-02 1.171717150027902499e-01 7.536642954947547768e-02 2.181366450019230629e-01 1.014557739394768426e-01 0.000000000000000000e+00 0.000000000000000000e+00 0.000000000000000000e+00 2.184671895208824609e-15 4.489356131781465600e-15 0.000000000000000000e+00 -5.546564795327974906e-16 1.675455761287259269e-15 0.000000000000000000e+00 -3.015206866075016761e-15 3.184825263464707654e-15 2.267088526687310855e-16 0.000000000000000000e+00 0.000000000000000000e+00 0.000000000000000000e+00 0.000000000000000000e+00 -9.657901516412837194e-16 6.152890736459107446e-16 0.000000000000000000e+00 -2.168330877725311014e-15 1.327707057952540087e-14 -3.015206866075016761e-15 3.184825263464707654e-15 2.267088526687310855e-16 0.000000000000000000e+00 8.335337110482813640e-15 3.966292740900182102e-15 0.000000000000000000e+00 1.771487598970886730e-15 2.418084068739313988e-15 0.000000000000000000e+00 -3.733881741589058850e-15 2.080168392961820878e-14 -3.015206866075016761e-15 3.184825263464707654e-15 2.267088526687310855e-16 0.000000000000000000e+00 0.000000000000000000e+00 0.000000000000000000e+00 0.000000000000000000e+00 -1.481035957223517308e-15 -1.973759500762744522e-15 0.000000000000000000e+00 -1.914057463579069272e-15 4.447901842273770095e-15 -3.015206866075016761e-15 3.184825263464707654e-15 2.267088526687310855e-16 0.000000000000000000e+00 0.000000000000000000e+00 0.000000000000000000e+00 0.000000000000000000e+00 3.504982029875898413e-15 -8.089308853925936399e-16 0.000000000000000000e+00 -2.124388695121300806e-15 1.395273552901359217e-14
